<svg width="180" height="92" viewBox="0 0 180 92" fill="none" xmlns="http://www.w3.org/2000/svg">
<path d="M0 57.7761C71.2454 57.7761 64.8089 51.3518 77.4599 18.7541C92.1425 -19.0782 83.7375 6.17046 105.869 69.6732C113.416 91.3257 111.822 -7.15164 113.416 42.0722C115.857 117.499 129.174 83.2357 180 83.2357" stroke="white" stroke-width="2"/>
<path d="M86.4476 17.8024C86.4476 18.6308 85.8373 19.1818 85.2281 19.1818C84.619 19.1818 84.0087 18.6308 84.0087 17.8024C84.0087 16.9739 84.619 16.423 85.2281 16.423C85.8373 16.423 86.4476 16.9739 86.4476 17.8024Z" stroke="white" stroke-width="2"/>
<path d="M113.525 17.8024C113.525 18.6308 112.915 19.1818 112.306 19.1818C111.697 19.1818 111.086 18.6308 111.086 17.8024C111.086 16.9739 111.697 16.423 112.306 16.423C112.915 16.423 113.525 16.9739 113.525 17.8024Z" stroke="white" stroke-width="2"/>
</svg>
